<svg width="60" height="60" viewBox="0 0 60 60" fill="none" xmlns="http://www.w3.org/2000/svg">
<path d="M42.1257 0H17.8743C8.01838 0 0 8.01838 0 17.8743V42.1257C0 51.9816 8.01838 60 17.8743 60H42.1257C51.9816 60 60 51.9816 60 42.1257V17.8743C59.9999 8.01838 51.9815 0 42.1257 0ZM53.964 42.1257C53.964 48.6637 48.6637 53.964 42.1257 53.964H17.8743C11.3363 53.964 6.036 48.6637 6.036 42.1257V17.8743C6.036 11.3361 11.3363 6.036 17.8743 6.036H42.1257C48.6637 6.036 53.964 11.3361 53.964 17.8743V42.1257Z" fill="url(#paint0_linear)"/>
<path d="M30.0001 14.4819C21.4434 14.4819 14.4819 21.4434 14.4819 30C14.4819 38.5566 21.4434 45.5181 30.0001 45.5181C38.5568 45.5181 45.5182 38.5567 45.5182 30C45.5182 21.4432 38.5568 14.4819 30.0001 14.4819ZM30.0001 39.4822C24.7632 39.4822 20.5179 35.2369 20.5179 30.0001C20.5179 24.7632 24.7633 20.5179 30.0001 20.5179C35.2369 20.5179 39.4822 24.7632 39.4822 30.0001C39.4822 35.2368 35.2368 39.4822 30.0001 39.4822Z" fill="url(#paint1_linear)"/>
<path d="M45.5481 18.3168C47.6017 18.3168 49.2665 16.652 49.2665 14.5983C49.2665 12.5447 47.6017 10.8799 45.5481 10.8799C43.4944 10.8799 41.8296 12.5447 41.8296 14.5983C41.8296 16.652 43.4944 18.3168 45.5481 18.3168Z" fill="url(#paint2_linear)"/>
<defs>
<linearGradient id="paint0_linear" x1="30" y1="59.8253" x2="30" y2="0.46603" gradientUnits="userSpaceOnUse">
<stop stop-color="#E09B3D"/>
<stop offset="0.3" stop-color="#C74C4D"/>
<stop offset="0.6" stop-color="#C21975"/>
<stop offset="1" stop-color="#7024C4"/>
</linearGradient>
<linearGradient id="paint1_linear" x1="30.0001" y1="59.8254" x2="30.0001" y2="0.466102" gradientUnits="userSpaceOnUse">
<stop stop-color="#E09B3D"/>
<stop offset="0.3" stop-color="#C74C4D"/>
<stop offset="0.6" stop-color="#C21975"/>
<stop offset="1" stop-color="#7024C4"/>
</linearGradient>
<linearGradient id="paint2_linear" x1="45.5481" y1="59.8253" x2="45.5481" y2="0.466009" gradientUnits="userSpaceOnUse">
<stop stop-color="#E09B3D"/>
<stop offset="0.3" stop-color="#C74C4D"/>
<stop offset="0.6" stop-color="#C21975"/>
<stop offset="1" stop-color="#7024C4"/>
</linearGradient>
</defs>
</svg>
