<svg width="60" height="60" viewBox="0 0 60 60" fill="none" xmlns="http://www.w3.org/2000/svg">
<g clip-path="url(#clip0)">
<path d="M30 59.999C46.5685 59.999 60 46.5676 60 29.999C60 13.4305 46.5685 -0.000976562 30 -0.000976562C13.4315 -0.000976562 0 13.4305 0 29.999C0 46.5676 13.4315 59.999 30 59.999Z" fill="#007AB9"/>
<path d="M47.9247 32.4135V44.7818H40.7538V33.2424C40.7538 30.3449 39.7185 28.3663 37.1221 28.3663C35.1408 28.3663 33.9637 29.6984 33.4439 30.9883C33.2552 31.4493 33.2065 32.0894 33.2065 32.7359V44.7813H26.0351C26.0351 44.7813 26.1314 25.2373 26.0351 23.2142H33.207V26.2705C33.1926 26.2945 33.1723 26.3181 33.1594 26.3411H33.207V26.2705C34.16 24.8041 35.8595 22.7078 39.6698 22.7078C44.3876 22.7078 47.9247 25.7902 47.9247 32.4135ZM18.5332 12.8181C16.0802 12.8181 14.4753 14.4283 14.4753 16.5439C14.4753 18.6146 16.0337 20.2713 18.4391 20.2713H18.4856C20.9868 20.2713 22.5419 18.6146 22.5419 16.5439C22.4943 14.4283 20.9868 12.8181 18.5332 12.8181ZM14.9016 44.7818H22.0703V23.2142H14.9016V44.7818Z" fill="#F1F2F2"/>
</g>
<defs>
<clipPath id="clip0">
<rect width="60" height="60" fill="white"/>
</clipPath>
</defs>
</svg>
